<svg xmlns="http://www.w3.org/2000/svg" fill="none" viewBox="0 0 75 18" class="w-[74px]"><path fill="#A1FCE7" d="M2.084 14.152q-.608 0-.874-.38t-.152-1.064L2.806 1.669q.095-.608.437-.912t.95-.304q.607 0 .855.38.266.38.152 1.064l-.684 4.294h6.897l.722-4.522q.095-.608.418-.912.342-.304.95-.304t.874.38q.266.36.152 1.064l-1.748 11.02q-.095.608-.437.931-.323.304-.931.304-.627 0-.893-.38-.247-.38-.133-1.064l.703-4.484H4.193l-.741 4.693q-.095.608-.437.931-.323.304-.931.304m14.594 3.42q-.456 0-.703-.209a.74.74 0 0 1-.266-.551q-.019-.323.21-.703l1.804-2.964-.152.988-2.185-7.942q-.132-.475-.038-.836.095-.38.38-.589.305-.21.741-.209.495 0 .741.247.266.228.4.836l1.52 6.289h-.59l3.724-6.517q.267-.457.551-.646.285-.21.741-.209.456 0 .703.209.267.21.285.551.038.323-.19.722L17.97 16.717q-.265.456-.55.646-.285.21-.742.209m8.285 0q-.551 0-.817-.361-.266-.36-.17-1.007l1.652-10.431q.096-.608.437-.912.343-.304.931-.304.551 0 .78.361.247.36.151 1.026l-.17 1.064-.039-.57q.532-.93 1.368-1.425.855-.495 1.938-.494 1.065 0 1.843.494.798.475 1.235 1.387.438.893.437 2.128 0 1.577-.57 2.869-.551 1.273-1.596 2.033t-2.508.76q-1.064 0-1.9-.513-.816-.513-1.14-1.52h.171l-.684 4.294q-.094.59-.418.855-.323.266-.93.266m4.465-5.187q.874 0 1.463-.494.609-.495.931-1.349.324-.855.323-1.9 0-1.12-.55-1.71-.533-.608-1.483-.608-.855 0-1.463.494t-.93 1.349q-.324.835-.324 1.9 0 1.121.532 1.729.552.59 1.501.589m9.107 1.805q-.988 0-1.691-.418-.704-.419-1.007-1.292-.285-.874-.076-2.223l.74-4.598q.096-.57.419-.836t.874-.266q.59 0 .855.342.285.322.19.969l-.684 4.37q-.152 1.045.152 1.558.323.513 1.178.513 1.064 0 1.729-.703.664-.703.855-1.919l.627-4.028q.095-.57.418-.836t.874-.266q.608 0 .874.342t.17.988l-1.12 7.144q-.171 1.12-1.292 1.121-.551 0-.817-.304t-.19-.931l.19-1.368.133.513q-.495 1.046-1.387 1.596-.874.532-2.014.532m8.356-.038q-.57 0-.836-.342-.248-.36-.152-1.007l1.12-7.106q.096-.57.438-.855t.893-.285q.55 0 .798.342.266.342.17.988l-.17 1.064h-.19q.38-1.121 1.254-1.729.874-.627 2.07-.703.533-.038.704.152.19.19.19.627 0 .627-.285.931-.285.285-.893.342l-.551.057q-1.273.133-1.824.779-.552.627-.741 1.767l-.608 3.838q-.076.57-.437.855-.342.285-.95.285m6.94 0q-.57 0-.836-.342-.246-.36-.152-1.007l1.121-7.106q.096-.57.437-.855.342-.285.893-.285t.798.342q.267.342.171.988l-.17 1.064h-.19q.379-1.121 1.253-1.729.874-.627 2.071-.703.533-.038.703.152.19.19.19.627 0 .627-.285.931-.285.285-.893.342l-.55.057q-1.275.133-1.825.779-.55.627-.74 1.767l-.609 3.838q-.075.57-.437.855-.341.285-.95.285m7.302 0q-.627 0-.912-.361-.285-.38-.19-1.026L61.76 1.783q.095-.59.437-.874.36-.304.95-.304h6.498q.493 0 .76.209.266.19.266.57 0 .533-.304.855-.286.304-.836.304h-5.434l-.608 3.781h4.845q.493 0 .76.209.266.19.266.57 0 .533-.304.855-.286.304-.836.304h-5.035l-.741 4.693q-.19 1.197-1.311 1.197m10.55 0q-.552 0-.818-.361-.246-.38-.152-1.026l1.121-7.03q.096-.59.437-.874.343-.304.931-.304.552 0 .798.361.267.36.171 1.026l-1.12 7.03q-.096.589-.438.893-.323.285-.93.285m1.823-11.343q-.645 0-.969-.304-.303-.323-.247-.893.077-.646.494-.969.419-.342 1.121-.342.646 0 .97.323.322.304.246.874-.075.646-.494.988-.4.323-1.12.323"></path></svg>